<svg xmlns="http://www.w3.org/2000/svg" xmlns:xlink="http://www.w3.org/1999/xlink" width="300" zoomAndPan="magnify" viewBox="0 0 224.87999 225" height="300" preserveAspectRatio="xMidYMid meet" version="1.0"><defs><clipPath id="e87664575c"><path d="M 23.933594 23.992188 L 200.839844 23.992188 L 200.839844 200.898438 L 23.933594 200.898438 Z M 23.933594 23.992188 " clip-rule="nonzero"/></clipPath></defs><path fill="#ffffff" d="M 169.339844 52.722656 C 185.101562 67.753906 194.925781 88.957031 194.925781 112.460938 C 194.925781 158.039062 157.976562 194.984375 112.402344 194.984375 C 135.1875 194.984375 153.664062 176.511719 153.664062 153.722656 C 153.664062 130.9375 135.195312 112.464844 112.410156 112.460938 C 112.40625 112.460938 112.40625 112.460938 112.402344 112.460938 C 89.613281 112.460938 71.140625 93.988281 71.140625 71.199219 C 71.140625 48.410156 89.613281 29.933594 112.402344 29.933594 C 66.820312 29.933594 29.871094 66.882812 29.871094 112.460938 C 29.871094 158.039062 66.820312 194.984375 112.402344 194.984375 C 157.980469 194.984375 194.925781 158.035156 194.925781 112.460938 C 194.925781 88.957031 185.101562 67.753906 169.339844 52.722656 Z M 102.085938 153.722656 C 102.085938 148.027344 106.703125 143.40625 112.402344 143.40625 C 118.097656 143.40625 122.714844 148.027344 122.714844 153.722656 C 122.714844 159.421875 118.09375 164.039062 112.402344 164.039062 C 106.703125 164.039062 102.085938 159.421875 102.085938 153.722656 Z M 102.085938 153.722656 " fill-opacity="1" fill-rule="nonzero"/><path fill="#ffffff" d="M 122.714844 71.199219 C 122.714844 71.875 122.648438 72.546875 122.515625 73.210938 C 122.386719 73.875 122.191406 74.519531 121.929688 75.144531 C 121.671875 75.773438 121.351562 76.367188 120.976562 76.929688 C 120.601562 77.492188 120.171875 78.011719 119.695312 78.492188 C 119.214844 78.972656 118.695312 79.398438 118.132812 79.773438 C 117.566406 80.152344 116.972656 80.46875 116.347656 80.726562 C 115.722656 80.988281 115.078125 81.183594 114.414062 81.316406 C 113.75 81.449219 113.078125 81.511719 112.402344 81.511719 C 111.722656 81.511719 111.054688 81.449219 110.386719 81.316406 C 109.722656 81.183594 109.078125 80.988281 108.453125 80.726562 C 107.828125 80.46875 107.234375 80.152344 106.671875 79.773438 C 106.105469 79.398438 105.585938 78.972656 105.105469 78.492188 C 104.628906 78.011719 104.199219 77.492188 103.824219 76.929688 C 103.449219 76.367188 103.128906 75.773438 102.871094 75.144531 C 102.613281 74.519531 102.417969 73.875 102.285156 73.210938 C 102.152344 72.546875 102.085938 71.875 102.085938 71.199219 C 102.085938 70.519531 102.152344 69.851562 102.285156 69.1875 C 102.417969 68.523438 102.613281 67.878906 102.871094 67.25 C 103.128906 66.625 103.449219 66.03125 103.824219 65.46875 C 104.199219 64.90625 104.628906 64.382812 105.105469 63.90625 C 105.585938 63.425781 106.105469 63 106.671875 62.621094 C 107.234375 62.246094 107.828125 61.929688 108.453125 61.667969 C 109.078125 61.410156 109.722656 61.214844 110.386719 61.082031 C 111.054688 60.949219 111.722656 60.882812 112.402344 60.882812 C 113.078125 60.882812 113.75 60.949219 114.414062 61.082031 C 115.078125 61.214844 115.722656 61.410156 116.347656 61.667969 C 116.972656 61.929688 117.566406 62.246094 118.132812 62.621094 C 118.695312 63 119.214844 63.425781 119.695312 63.90625 C 120.171875 64.382812 120.601562 64.90625 120.976562 65.46875 C 121.351562 66.03125 121.671875 66.625 121.929688 67.25 C 122.191406 67.878906 122.386719 68.523438 122.515625 69.1875 C 122.648438 69.851562 122.714844 70.519531 122.714844 71.199219 Z M 122.714844 71.199219 " fill-opacity="1" fill-rule="nonzero"/><g clip-path="url(#e87664575c)"><path fill="#ffffff" d="M 112.402344 29.933594 C 134.476562 29.933594 154.527344 38.605469 169.339844 52.722656 C 185.101562 67.753906 194.925781 88.957031 194.925781 112.460938 C 194.925781 158.039062 157.980469 194.984375 112.402344 194.984375 C 66.824219 194.984375 29.871094 158.035156 29.871094 112.460938 C 29.871094 66.882812 66.820312 29.933594 112.402344 29.933594 C 112.40625 29.933594 112.414062 29.933594 112.421875 29.933594 C 112.425781 29.933594 112.429688 29.933594 112.4375 29.933594 C 112.460938 29.933594 112.480469 29.933594 112.5 29.933594 C 112.640625 29.9375 112.78125 29.941406 112.917969 29.945312 C 112.9375 29.945312 112.953125 29.945312 112.96875 29.945312 C 112.953125 29.945312 112.9375 29.945312 112.917969 29.945312 C 112.777344 29.941406 112.640625 29.933594 112.5 29.933594 C 112.472656 29.933594 112.445312 29.933594 112.421875 29.933594 C 112.414062 29.933594 112.40625 29.933594 112.402344 29.933594 M 112.402344 23.992188 C 100.460938 23.992188 88.875 26.332031 77.964844 30.949219 C 67.425781 35.402344 57.96875 41.78125 49.84375 49.902344 C 41.722656 58.027344 35.34375 67.484375 30.886719 78.023438 C 26.273438 88.933594 23.933594 100.523438 23.933594 112.460938 C 23.933594 124.402344 26.273438 135.988281 30.886719 146.894531 C 35.34375 157.4375 41.722656 166.894531 49.84375 175.015625 C 57.96875 183.140625 67.425781 189.519531 77.964844 193.976562 C 88.875 198.589844 100.460938 200.929688 112.402344 200.929688 C 124.339844 200.929688 135.925781 198.589844 146.835938 193.976562 C 157.375 189.519531 166.832031 183.140625 174.957031 175.015625 C 183.082031 166.894531 189.457031 157.4375 193.914062 146.894531 C 198.53125 135.988281 200.867188 124.402344 200.867188 112.460938 C 200.867188 100.148438 198.386719 88.230469 193.488281 77.03125 C 188.757812 66.222656 182.015625 56.597656 173.4375 48.421875 C 156.914062 32.667969 135.238281 23.992188 112.402344 23.992188 Z M 112.402344 23.992188 " fill-opacity="1" fill-rule="nonzero"/></g></svg>