<svg xmlns="http://www.w3.org/2000/svg" xmlns:xlink="http://www.w3.org/1999/xlink" width="300" zoomAndPan="magnify" viewBox="0 0 224.87999 225" height="300" preserveAspectRatio="xMidYMid meet" version="1.0"><defs><clipPath id="892b85b100"><path d="M 23 51.332031 L 173.90625 51.332031 L 173.90625 202 L 23 202 Z M 23 51.332031 " clip-rule="nonzero"/></clipPath><clipPath id="c9594a0394"><path d="M 95 71 L 145 71 L 145 121 L 95 121 Z M 95 71 " clip-rule="nonzero"/></clipPath><clipPath id="d6c3b9706e"><path d="M 91.453125 108.417969 L 137.957031 19.386719 L 202.40625 53.050781 L 155.902344 142.082031 Z M 91.453125 108.417969 " clip-rule="nonzero"/></clipPath><clipPath id="e93a108f73"><path d="M 91.453125 108.417969 L 137.957031 19.386719 L 202.40625 53.050781 L 155.902344 142.082031 Z M 91.453125 108.417969 " clip-rule="nonzero"/></clipPath><clipPath id="36da42b94d"><path d="M 141 50 L 177 50 L 177 86 L 141 86 Z M 141 50 " clip-rule="nonzero"/></clipPath><clipPath id="a5ed2ffe6c"><path d="M 91.453125 108.417969 L 137.957031 19.386719 L 202.40625 53.050781 L 155.902344 142.082031 Z M 91.453125 108.417969 " clip-rule="nonzero"/></clipPath><clipPath id="e289d17209"><path d="M 91.453125 108.417969 L 137.957031 19.386719 L 202.40625 53.050781 L 155.902344 142.082031 Z M 91.453125 108.417969 " clip-rule="nonzero"/></clipPath><clipPath id="4be75444b5"><path d="M 173 44 L 198 44 L 198 70 L 173 70 Z M 173 44 " clip-rule="nonzero"/></clipPath><clipPath id="2bafc35afe"><path d="M 91.453125 108.417969 L 137.957031 19.386719 L 202.40625 53.050781 L 155.902344 142.082031 Z M 91.453125 108.417969 " clip-rule="nonzero"/></clipPath><clipPath id="29eebe7401"><path d="M 91.453125 108.417969 L 137.957031 19.386719 L 202.40625 53.050781 L 155.902344 142.082031 Z M 91.453125 108.417969 " clip-rule="nonzero"/></clipPath></defs><g clip-path="url(#892b85b100)"><path fill="#ffffff" d="M 171.238281 126.53125 C 170.871094 126.402344 170.488281 126.332031 170.097656 126.328125 C 169.707031 126.320312 169.324219 126.375 168.949219 126.488281 C 168.574219 126.605469 168.230469 126.777344 167.910156 127.003906 C 167.589844 127.234375 167.316406 127.503906 167.085938 127.820312 C 166.554688 128.546875 166 129.257812 165.429688 129.953125 C 164.859375 130.648438 164.273438 131.328125 163.664062 131.992188 C 163.058594 132.660156 162.433594 133.304688 161.792969 133.9375 C 161.148438 134.566406 160.492188 135.179688 159.816406 135.777344 C 159.140625 136.371094 158.449219 136.949219 157.746094 137.507812 C 157.039062 138.0625 156.316406 138.601562 155.582031 139.121094 C 154.847656 139.640625 154.097656 140.140625 153.335938 140.621094 C 152.574219 141.097656 151.800781 141.558594 151.015625 141.996094 C 150.226562 142.433594 149.429688 142.847656 148.621094 143.242188 C 147.8125 143.636719 146.992188 144.007812 146.164062 144.359375 C 145.335938 144.710938 144.496094 145.035156 143.648438 145.34375 C 142.804688 145.648438 141.949219 145.929688 141.085938 146.1875 C 140.226562 146.445312 139.355469 146.683594 138.480469 146.894531 C 137.609375 147.109375 136.726562 147.296875 135.84375 147.460938 C 134.957031 147.625 134.070312 147.765625 133.175781 147.882812 C 132.285156 148 131.390625 148.09375 130.492188 148.164062 C 129.59375 148.230469 128.695312 148.277344 127.796875 148.296875 C 126.898438 148.316406 125.996094 148.3125 125.097656 148.285156 C 124.199219 148.257812 123.300781 148.207031 122.402344 148.128906 C 121.507812 148.054688 120.613281 147.953125 119.722656 147.828125 C 118.832031 147.703125 117.941406 147.554688 117.058594 147.382812 C 116.175781 147.210938 115.296875 147.015625 114.425781 146.796875 C 113.550781 146.574219 112.6875 146.332031 111.828125 146.066406 C 110.964844 145.800781 110.113281 145.511719 109.269531 145.199219 C 108.425781 144.886719 107.589844 144.554688 106.765625 144.195312 C 105.9375 143.839844 105.121094 143.460938 104.316406 143.058594 C 103.511719 142.65625 102.71875 142.234375 101.933594 141.792969 C 101.152344 141.347656 100.378906 140.882812 99.621094 140.398438 C 98.863281 139.914062 98.121094 139.40625 97.390625 138.882812 C 96.660156 138.355469 95.941406 137.8125 95.242188 137.246094 C 94.539062 136.683594 93.855469 136.101562 93.183594 135.5 C 92.515625 134.898438 91.859375 134.28125 91.222656 133.644531 C 90.585938 133.007812 89.96875 132.355469 89.367188 131.6875 C 88.765625 131.015625 88.183594 130.332031 87.617188 129.632812 C 87.050781 128.929688 86.507812 128.214844 85.980469 127.484375 C 85.453125 126.753906 84.949219 126.011719 84.460938 125.253906 C 83.976562 124.496094 83.511719 123.726562 83.066406 122.941406 C 82.621094 122.160156 82.199219 121.367188 81.796875 120.5625 C 81.394531 119.757812 81.015625 118.941406 80.65625 118.113281 C 80.300781 117.289062 79.964844 116.453125 79.652344 115.609375 C 79.339844 114.765625 79.046875 113.914062 78.78125 113.054688 C 78.515625 112.195312 78.269531 111.328125 78.050781 110.457031 C 77.828125 109.585938 77.632812 108.707031 77.460938 107.824219 C 77.285156 106.941406 77.136719 106.054688 77.011719 105.160156 C 76.886719 104.269531 76.785156 103.375 76.707031 102.480469 C 76.628906 101.582031 76.578125 100.683594 76.546875 99.785156 C 76.519531 98.886719 76.515625 97.988281 76.535156 97.085938 C 76.554688 96.1875 76.597656 95.289062 76.664062 94.390625 C 76.734375 93.492188 76.824219 92.597656 76.941406 91.707031 C 77.058594 90.8125 77.199219 89.925781 77.363281 89.039062 C 77.527344 88.15625 77.714844 87.273438 77.925781 86.398438 C 78.136719 85.523438 78.371094 84.65625 78.628906 83.792969 C 78.886719 82.933594 79.167969 82.078125 79.472656 81.230469 C 79.777344 80.382812 80.105469 79.546875 80.453125 78.714844 C 80.804688 77.886719 81.175781 77.066406 81.566406 76.257812 C 81.960938 75.449219 82.375 74.648438 82.8125 73.863281 C 83.25 73.074219 83.707031 72.300781 84.183594 71.539062 C 84.664062 70.777344 85.160156 70.027344 85.679688 69.292969 C 86.199219 68.554688 86.738281 67.835938 87.292969 67.128906 C 87.851562 66.421875 88.429688 65.730469 89.023438 65.054688 C 89.617188 64.378906 90.230469 63.71875 90.859375 63.078125 C 91.488281 62.433594 92.136719 61.808594 92.800781 61.203125 C 93.464844 60.59375 94.144531 60.003906 94.839844 59.433594 C 95.535156 58.863281 96.246094 58.308594 96.972656 57.777344 C 97.300781 57.566406 97.589844 57.308594 97.832031 57 C 98.074219 56.691406 98.261719 56.351562 98.390625 55.984375 C 98.519531 55.613281 98.585938 55.234375 98.589844 54.839844 C 98.589844 54.449219 98.527344 54.066406 98.402344 53.695312 C 98.273438 53.335938 98.09375 53.007812 97.859375 52.707031 C 97.625 52.410156 97.351562 52.152344 97.035156 51.941406 C 96.71875 51.726562 96.378906 51.570312 96.011719 51.464844 C 95.648438 51.363281 95.273438 51.316406 94.894531 51.332031 C 93.6875 51.386719 92.480469 51.472656 91.277344 51.589844 C 90.074219 51.703125 88.875 51.847656 87.679688 52.019531 C 86.484375 52.191406 85.292969 52.390625 84.105469 52.621094 C 82.917969 52.851562 81.738281 53.109375 80.5625 53.394531 C 79.390625 53.679688 78.222656 53.996094 77.0625 54.335938 C 75.90625 54.679688 74.753906 55.050781 73.613281 55.449219 C 72.472656 55.847656 71.34375 56.269531 70.222656 56.722656 C 69.101562 57.175781 67.992188 57.65625 66.894531 58.160156 C 65.796875 58.664062 64.710938 59.199219 63.636719 59.753906 C 62.566406 60.3125 61.507812 60.898438 60.464844 61.503906 C 59.421875 62.113281 58.390625 62.746094 57.378906 63.40625 C 56.363281 64.0625 55.367188 64.746094 54.386719 65.453125 C 53.40625 66.160156 52.441406 66.886719 51.496094 67.640625 C 50.550781 68.394531 49.625 69.167969 48.714844 69.964844 C 47.808594 70.761719 46.917969 71.582031 46.050781 72.421875 C 45.179688 73.261719 44.332031 74.121094 43.503906 75.003906 C 42.675781 75.882812 41.871094 76.785156 41.085938 77.703125 C 40.304688 78.621094 39.542969 79.558594 38.800781 80.515625 C 38.0625 81.472656 37.347656 82.445312 36.65625 83.4375 C 35.964844 84.429688 35.296875 85.433594 34.652344 86.457031 C 34.007812 87.480469 33.390625 88.519531 32.792969 89.570312 C 32.199219 90.625 31.632812 91.6875 31.089844 92.769531 C 30.546875 93.847656 30.03125 94.941406 29.542969 96.046875 C 29.050781 97.152344 28.589844 98.265625 28.152344 99.394531 C 27.714844 100.519531 27.308594 101.65625 26.925781 102.804688 C 26.542969 103.953125 26.191406 105.105469 25.863281 106.269531 C 25.539062 107.433594 25.238281 108.605469 24.96875 109.785156 C 24.699219 110.960938 24.460938 112.144531 24.246094 113.335938 C 24.035156 114.523438 23.851562 115.71875 23.695312 116.917969 C 23.539062 118.117188 23.414062 119.316406 23.316406 120.523438 C 23.21875 121.726562 23.152344 122.933594 23.113281 124.140625 C 23.070312 125.347656 23.0625 126.558594 23.082031 127.765625 C 23.097656 128.972656 23.148438 130.179688 23.222656 131.386719 C 23.300781 132.59375 23.40625 133.796875 23.542969 135 C 23.675781 136.199219 23.839844 137.398438 24.03125 138.589844 C 24.226562 139.78125 24.445312 140.96875 24.695312 142.152344 C 24.945312 143.335938 25.222656 144.511719 25.53125 145.679688 C 25.835938 146.851562 26.171875 148.011719 26.53125 149.164062 C 26.894531 150.316406 27.285156 151.460938 27.699219 152.59375 C 28.117188 153.730469 28.5625 154.851562 29.035156 155.964844 C 29.503906 157.078125 30.003906 158.179688 30.527344 159.269531 C 31.050781 160.359375 31.601562 161.433594 32.175781 162.496094 C 32.753906 163.558594 33.355469 164.605469 33.980469 165.640625 C 34.605469 166.671875 35.257812 167.691406 35.933594 168.695312 C 36.609375 169.695312 37.308594 170.679688 38.03125 171.648438 C 38.753906 172.617188 39.5 173.570312 40.265625 174.503906 C 41.035156 175.433594 41.824219 176.347656 42.636719 177.242188 C 43.449219 178.136719 44.285156 179.011719 45.140625 179.867188 C 45.992188 180.722656 46.867188 181.554688 47.761719 182.367188 C 48.65625 183.179688 49.570312 183.972656 50.503906 184.738281 C 51.4375 185.507812 52.386719 186.253906 53.355469 186.976562 C 54.324219 187.699219 55.308594 188.398438 56.3125 189.074219 C 57.316406 189.75 58.332031 190.398438 59.367188 191.027344 C 60.398438 191.652344 61.449219 192.253906 62.511719 192.828125 C 63.574219 193.40625 64.648438 193.957031 65.738281 194.480469 C 66.828125 195.003906 67.925781 195.5 69.039062 195.972656 C 70.152344 196.445312 71.277344 196.886719 72.410156 197.304688 C 73.546875 197.722656 74.6875 198.113281 75.84375 198.472656 C 76.996094 198.835938 78.15625 199.171875 79.324219 199.476562 C 80.496094 199.78125 81.671875 200.058594 82.851562 200.308594 C 84.035156 200.558594 85.222656 200.78125 86.417969 200.972656 C 87.609375 201.164062 88.808594 201.328125 90.007812 201.464844 C 91.207031 201.597656 92.414062 201.703125 93.617188 201.78125 C 94.824219 201.859375 96.03125 201.90625 97.242188 201.925781 C 98.449219 201.945312 99.65625 201.933594 100.863281 201.894531 C 102.074219 201.855469 103.277344 201.785156 104.484375 201.691406 C 105.6875 201.59375 106.890625 201.464844 108.089844 201.3125 C 109.289062 201.15625 110.480469 200.972656 111.671875 200.757812 C 112.859375 200.546875 114.042969 200.304688 115.222656 200.035156 C 116.402344 199.765625 117.570312 199.46875 118.734375 199.140625 C 119.898438 198.816406 121.054688 198.460938 122.203125 198.082031 C 123.347656 197.699219 124.484375 197.289062 125.613281 196.855469 C 126.738281 196.417969 127.855469 195.953125 128.960938 195.464844 C 130.066406 194.976562 131.15625 194.457031 132.238281 193.914062 C 133.316406 193.375 134.382812 192.804688 135.4375 192.210938 C 136.488281 191.617188 137.527344 191 138.550781 190.355469 C 139.570312 189.710938 140.578125 189.042969 141.570312 188.351562 C 142.558594 187.660156 143.535156 186.941406 144.488281 186.203125 C 145.445312 185.464844 146.382812 184.703125 147.304688 183.917969 C 148.222656 183.132812 149.121094 182.328125 150.003906 181.5 C 150.882812 180.671875 151.746094 179.824219 152.585938 178.957031 C 153.425781 178.085938 154.242188 177.199219 155.039062 176.289062 C 155.839844 175.382812 156.613281 174.453125 157.367188 173.507812 C 158.117188 172.5625 158.847656 171.601562 159.554688 170.621094 C 160.261719 169.640625 160.941406 168.640625 161.601562 167.628906 C 162.257812 166.613281 162.890625 165.585938 163.5 164.542969 C 164.109375 163.496094 164.691406 162.441406 165.25 161.367188 C 165.808594 160.296875 166.339844 159.210938 166.847656 158.113281 C 167.351562 157.015625 167.832031 155.90625 168.28125 154.785156 C 168.734375 153.664062 169.160156 152.535156 169.558594 151.390625 C 169.957031 150.25 170.324219 149.101562 170.667969 147.941406 C 171.011719 146.78125 171.324219 145.617188 171.613281 144.441406 C 171.898438 143.269531 172.15625 142.085938 172.386719 140.902344 C 172.613281 139.714844 172.816406 138.523438 172.988281 137.328125 C 173.160156 136.128906 173.304688 134.929688 173.417969 133.726562 C 173.53125 132.523438 173.617188 131.320312 173.675781 130.113281 C 173.695312 129.722656 173.652344 129.339844 173.546875 128.960938 C 173.441406 128.585938 173.277344 128.234375 173.058594 127.910156 C 172.839844 127.589844 172.574219 127.308594 172.261719 127.074219 C 171.949219 126.835938 171.609375 126.65625 171.238281 126.53125 Z M 98.402344 194.710938 C 96.328125 194.703125 94.253906 194.601562 92.1875 194.40625 C 90.117188 194.207031 88.0625 193.917969 86.023438 193.53125 C 83.980469 193.148438 81.960938 192.671875 79.964844 192.101562 C 77.96875 191.53125 76 190.875 74.0625 190.125 C 72.125 189.375 70.226562 188.539062 68.363281 187.617188 C 66.503906 186.695312 64.6875 185.6875 62.917969 184.601562 C 61.152344 183.511719 59.433594 182.34375 57.773438 181.097656 C 56.109375 179.855469 54.507812 178.535156 52.964844 177.144531 C 51.425781 175.75 49.949219 174.292969 48.539062 172.765625 C 47.132812 171.238281 45.796875 169.652344 44.53125 168.003906 C 43.269531 166.355469 42.082031 164.652344 40.976562 162.894531 C 39.867188 161.136719 38.84375 159.332031 37.898438 157.484375 C 36.957031 155.632812 36.101562 153.742188 35.332031 151.8125 C 34.558594 149.882812 33.878906 147.921875 33.289062 145.933594 C 32.699219 143.941406 32.199219 141.925781 31.792969 139.890625 C 31.382812 137.851562 31.070312 135.800781 30.851562 133.738281 C 30.632812 131.671875 30.507812 129.601562 30.476562 127.523438 C 30.445312 125.445312 30.511719 123.371094 30.671875 121.300781 C 30.832031 119.230469 31.082031 117.171875 31.429688 115.121094 C 31.777344 113.074219 32.21875 111.046875 32.75 109.039062 C 33.285156 107.03125 33.90625 105.054688 34.621094 103.101562 C 35.335938 101.152344 36.136719 99.238281 37.027344 97.359375 C 37.914062 95.484375 38.886719 93.648438 39.941406 91.863281 C 41 90.074219 42.132812 88.335938 43.351562 86.652344 C 44.566406 84.96875 45.855469 83.339844 47.21875 81.773438 C 48.582031 80.207031 50.011719 78.707031 51.515625 77.269531 C 53.015625 75.832031 54.578125 74.46875 56.203125 73.175781 C 57.828125 71.882812 59.507812 70.667969 61.246094 69.527344 C 62.984375 68.386719 64.769531 67.328125 66.601562 66.351562 C 68.433594 65.375 70.308594 64.484375 72.222656 63.679688 C 74.136719 62.875 76.085938 62.160156 78.066406 61.53125 C 80.046875 60.90625 82.050781 60.371094 84.078125 59.925781 C 82.859375 61.273438 81.707031 62.675781 80.617188 64.132812 C 79.53125 65.589844 78.515625 67.09375 77.574219 68.648438 C 76.628906 70.199219 75.761719 71.792969 74.96875 73.429688 C 74.175781 75.066406 73.464844 76.734375 72.832031 78.441406 C 72.199219 80.144531 71.648438 81.875 71.179688 83.628906 C 70.710938 85.386719 70.328125 87.160156 70.027344 88.953125 C 69.726562 90.746094 69.511719 92.546875 69.386719 94.363281 C 69.257812 96.175781 69.214844 97.988281 69.261719 99.808594 C 69.304688 101.625 69.4375 103.433594 69.652344 105.238281 C 69.871094 107.042969 70.171875 108.835938 70.558594 110.609375 C 70.949219 112.386719 71.417969 114.140625 71.972656 115.871094 C 72.527344 117.601562 73.164062 119.300781 73.878906 120.972656 C 74.59375 122.644531 75.386719 124.277344 76.261719 125.871094 C 77.132812 127.464844 78.078125 129.015625 79.097656 130.519531 C 80.113281 132.027344 81.203125 133.480469 82.359375 134.878906 C 83.519531 136.28125 84.738281 137.625 86.023438 138.910156 C 87.308594 140.195312 88.652344 141.417969 90.054688 142.574219 C 91.457031 143.730469 92.910156 144.820312 94.414062 145.839844 C 95.917969 146.859375 97.46875 147.804688 99.0625 148.675781 C 100.660156 149.546875 102.292969 150.339844 103.960938 151.054688 C 105.632812 151.773438 107.332031 152.40625 109.066406 152.960938 C 110.796875 153.515625 112.550781 153.988281 114.324219 154.375 C 116.101562 154.761719 117.890625 155.0625 119.695312 155.28125 C 121.5 155.5 123.3125 155.628906 125.128906 155.675781 C 126.945312 155.71875 128.757812 155.675781 130.574219 155.550781 C 132.386719 155.421875 134.1875 155.207031 135.980469 154.90625 C 137.773438 154.609375 139.546875 154.222656 141.304688 153.753906 C 143.0625 153.289062 144.789062 152.738281 146.496094 152.101562 C 148.199219 151.46875 149.867188 150.757812 151.503906 149.964844 C 153.140625 149.171875 154.734375 148.304688 156.289062 147.363281 C 157.839844 146.417969 159.347656 145.402344 160.804688 144.316406 C 162.257812 143.230469 163.660156 142.074219 165.007812 140.855469 C 164.609375 142.746094 164.125 144.613281 163.566406 146.460938 C 163.007812 148.3125 162.367188 150.132812 161.652344 151.925781 C 160.9375 153.722656 160.144531 155.480469 159.28125 157.207031 C 158.414062 158.933594 157.476562 160.621094 156.464844 162.269531 C 155.457031 163.917969 154.378906 165.515625 153.234375 167.070312 C 152.085938 168.628906 150.875 170.128906 149.601562 171.582031 C 148.328125 173.035156 146.992188 174.429688 145.601562 175.765625 C 144.207031 177.105469 142.761719 178.382812 141.257812 179.597656 C 139.753906 180.8125 138.203125 181.960938 136.605469 183.042969 C 135.003906 184.125 133.359375 185.136719 131.675781 186.078125 C 129.988281 187.019531 128.265625 187.890625 126.503906 188.683594 C 124.742188 189.480469 122.953125 190.199219 121.132812 190.839844 C 119.308594 191.484375 117.464844 192.046875 115.59375 192.535156 C 113.722656 193.019531 111.835938 193.421875 109.933594 193.746094 C 108.027344 194.070312 106.113281 194.3125 104.1875 194.476562 C 102.261719 194.636719 100.335938 194.714844 98.402344 194.710938 Z M 98.402344 194.710938 " fill-opacity="1" fill-rule="nonzero"/></g><g clip-path="url(#c9594a0394)"><g clip-path="url(#d6c3b9706e)"><g clip-path="url(#e93a108f73)"><path fill="#ffffff" d="M 103.78125 85.847656 C 102.40625 88.992188 100.269531 93.757812 99.023438 96.457031 C 96.351562 102.296875 95.519531 104.453125 95.183594 106.492188 C 94.753906 109.019531 95.734375 111.070312 97.578125 111.523438 C 98.570312 111.742188 100.195312 111.109375 101.1875 110.085938 C 103.238281 107.972656 107.042969 100.429688 111.359375 89.941406 C 112.433594 87.316406 113.371094 85.160156 113.425781 85.164062 C 113.488281 85.144531 115.179688 90.640625 117.222656 97.378906 C 122.660156 115.550781 123.136719 116.960938 124.003906 118.144531 C 125.675781 120.367188 127.953125 121.125 130.3125 120.226562 C 132.953125 119.203125 133.824219 117.792969 137.871094 107.976562 C 139.585938 103.820312 141.785156 98.519531 142.769531 96.226562 C 143.761719 93.910156 144.671875 91.441406 144.8125 90.761719 C 145.132812 89.117188 144.800781 87.164062 144.027344 86.113281 C 143.527344 85.417969 143.285156 85.265625 142.496094 85.121094 C 141.246094 84.875 139.359375 85.644531 138.128906 86.917969 C 136.972656 88.09375 134.046875 93.695312 131.113281 100.394531 C 130.109375 102.679688 129.242188 104.601562 129.175781 104.621094 C 129.113281 104.640625 127.59375 99.851562 125.800781 93.976562 C 120.574219 76.800781 119.410156 74.171875 116.503906 72.652344 C 114.160156 71.453125 111.808594 71.820312 110 73.683594 C 108.886719 74.828125 107.046875 78.402344 103.78125 85.847656 Z M 103.78125 85.847656 " fill-opacity="1" fill-rule="evenodd"/></g></g></g><g clip-path="url(#36da42b94d)"><g clip-path="url(#a5ed2ffe6c)"><g clip-path="url(#e289d17209)"><path fill="#ffffff" d="M 142.007812 64.917969 C 141.125 67.695312 141.726562 69.898438 143.515625 70.457031 C 145.75 71.136719 147.898438 69.503906 152.140625 63.863281 C 152.941406 62.796875 153.683594 61.890625 153.824219 61.828125 C 154.039062 61.78125 156.6875 71.179688 158.496094 78.523438 C 159.394531 82.070312 159.855469 83.257812 160.726562 84.171875 C 161.695312 85.160156 163.511719 85.816406 164.84375 85.644531 C 166.753906 85.402344 167.730469 84.5625 171.398438 79.863281 C 173.21875 77.574219 174.929688 75.230469 175.207031 74.699219 C 176.566406 72.089844 176.257812 69.578125 174.433594 68.625 C 172.273438 67.496094 169.609375 68.507812 167.195312 71.378906 C 166.691406 71.980469 166.234375 72.441406 166.167969 72.410156 C 166.105469 72.375 165.230469 69.351562 164.246094 65.707031 C 161 53.671875 159.046875 50.382812 154.992188 50.183594 C 152.375 50.03125 150.8125 51.210938 147.414062 55.808594 C 144.835938 59.292969 142.585938 63.085938 142.007812 64.917969 Z M 142.007812 64.917969 " fill-opacity="1" fill-rule="evenodd"/></g></g></g><g clip-path="url(#4be75444b5)"><g clip-path="url(#2bafc35afe)"><g clip-path="url(#29eebe7401)"><path fill="#ffffff" d="M 173.78125 54.113281 C 173.675781 55.867188 174.753906 57.265625 176.417969 57.542969 C 177.242188 57.675781 179.917969 56.886719 181.605469 56.039062 L 182.371094 55.65625 L 182.441406 57.691406 C 182.730469 64.886719 183.167969 66.953125 184.714844 68.433594 C 187.386719 71.019531 191.296875 70.09375 195 66.003906 C 196.722656 64.097656 197.6875 61.632812 197.21875 60.359375 C 196.738281 59.058594 194.546875 58.804688 191.929688 59.730469 L 190.691406 60.191406 L 190.582031 56.785156 C 190.527344 54.921875 190.460938 52.621094 190.46875 51.679688 C 190.457031 48.191406 189.476562 45.976562 187.503906 44.949219 C 185.085938 43.683594 183.28125 44.253906 179.097656 47.601562 C 174.789062 51.046875 173.882812 52.167969 173.78125 54.113281 Z M 173.78125 54.113281 " fill-opacity="1" fill-rule="evenodd"/></g></g></g></svg>