<svg xmlns="http://www.w3.org/2000/svg" xmlns:xlink="http://www.w3.org/1999/xlink" width="300" zoomAndPan="magnify" viewBox="0 0 224.87999 225" height="300" preserveAspectRatio="xMidYMid meet" version="1.0"><defs><clipPath id="566d13fbdf"><path d="M 60.429688 23 L 164 23 L 164 202.453125 L 60.429688 202.453125 Z M 60.429688 23 " clip-rule="nonzero"/></clipPath></defs><g clip-path="url(#566d13fbdf)"><path fill="#ffffff" d="M 71.339844 202.386719 C 69.859375 202.378906 68.53125 201.917969 67.363281 201.011719 C 67.054688 200.78125 66.765625 200.523438 66.5 200.242188 C 66.238281 199.960938 66 199.65625 65.792969 199.332031 C 65.582031 199.007812 65.402344 198.664062 65.253906 198.308594 C 65.109375 197.949219 64.992188 197.582031 64.914062 197.203125 C 64.832031 196.828125 64.785156 196.445312 64.773438 196.058594 C 64.761719 195.671875 64.785156 195.289062 64.839844 194.90625 C 64.898438 194.523438 64.988281 194.148438 65.113281 193.78125 C 65.238281 193.417969 65.394531 193.066406 65.585938 192.726562 L 65.617188 192.671875 L 104.609375 123.625 L 67.429688 123.625 C 66.789062 123.625 66.164062 123.53125 65.550781 123.34375 C 64.9375 123.160156 64.363281 122.890625 63.832031 122.535156 C 63.296875 122.179688 62.824219 121.757812 62.417969 121.261719 C 62.007812 120.769531 61.679688 120.226562 61.429688 119.636719 C 61.183594 119.046875 61.023438 118.433594 60.953125 117.796875 C 60.886719 117.160156 60.910156 116.527344 61.03125 115.898438 C 61.148438 115.269531 61.355469 114.667969 61.648438 114.101562 C 61.941406 113.53125 62.3125 113.019531 62.757812 112.558594 L 141.976562 25.257812 L 142.085938 25.136719 C 142.625 24.601562 143.238281 24.171875 143.925781 23.847656 C 144.617188 23.523438 145.335938 23.328125 146.09375 23.257812 C 146.851562 23.1875 147.597656 23.25 148.332031 23.441406 C 149.070312 23.628906 149.75 23.941406 150.378906 24.371094 C 151.003906 24.796875 151.542969 25.320312 151.988281 25.9375 C 152.429688 26.554688 152.757812 27.226562 152.96875 27.957031 C 153.175781 28.6875 153.257812 29.433594 153.207031 30.191406 C 153.15625 30.949219 152.976562 31.675781 152.671875 32.375 L 152.625 32.472656 L 121.824219 96.890625 L 154.539062 96.890625 C 155.441406 96.890625 156.324219 97.023438 157.1875 97.28125 C 158.050781 97.542969 158.855469 97.921875 159.609375 98.421875 C 160.359375 98.917969 161.023438 99.515625 161.597656 100.207031 C 162.175781 100.902344 162.636719 101.664062 162.988281 102.492188 C 163.339844 103.324219 163.566406 104.1875 163.664062 105.082031 C 163.761719 105.976562 163.726562 106.871094 163.5625 107.757812 C 163.398438 108.640625 163.109375 109.484375 162.695312 110.285156 C 162.285156 111.089844 161.765625 111.8125 161.136719 112.460938 L 75.914062 200.429688 L 75.820312 200.527344 C 75.21875 201.117188 74.53125 201.570312 73.757812 201.890625 C 72.984375 202.210938 72.175781 202.378906 71.339844 202.386719 Z M 71.164062 195.703125 Z M 67.878906 116.898438 L 104.949219 116.898438 C 105.230469 116.898438 105.511719 116.917969 105.789062 116.953125 C 106.066406 116.988281 106.34375 117.042969 106.613281 117.117188 C 106.886719 117.1875 107.152344 117.277344 107.414062 117.382812 C 107.671875 117.488281 107.925781 117.613281 108.167969 117.75 C 108.414062 117.890625 108.648438 118.042969 108.871094 118.210938 C 109.097656 118.382812 109.308594 118.566406 109.511719 118.761719 C 109.710938 118.957031 109.898438 119.167969 110.074219 119.386719 C 110.246094 119.609375 110.40625 119.839844 110.550781 120.082031 C 110.691406 120.324219 110.820312 120.570312 110.933594 120.832031 C 111.042969 121.089844 111.140625 121.351562 111.214844 121.621094 C 111.292969 121.890625 111.355469 122.167969 111.394531 122.445312 C 111.4375 122.722656 111.460938 123 111.46875 123.28125 C 111.472656 123.5625 111.460938 123.84375 111.433594 124.125 C 111.402344 124.402344 111.355469 124.679688 111.289062 124.953125 C 111.222656 125.226562 111.140625 125.492188 111.039062 125.757812 C 110.9375 126.019531 110.820312 126.273438 110.6875 126.519531 L 110.65625 126.574219 L 72.253906 194.578125 L 156.304688 107.789062 C 156.648438 107.433594 156.867188 107.015625 156.957031 106.527344 C 157.046875 106.039062 156.996094 105.570312 156.804688 105.113281 C 156.609375 104.65625 156.308594 104.292969 155.894531 104.019531 C 155.480469 103.746094 155.027344 103.609375 154.53125 103.609375 L 121.507812 103.609375 C 121.238281 103.609375 120.96875 103.59375 120.703125 103.558594 C 120.433594 103.527344 120.167969 103.476562 119.90625 103.410156 C 119.644531 103.34375 119.386719 103.261719 119.136719 103.164062 C 118.886719 103.066406 118.640625 102.953125 118.402344 102.824219 C 118.164062 102.695312 117.9375 102.550781 117.71875 102.394531 C 117.496094 102.238281 117.289062 102.070312 117.089844 101.886719 C 116.890625 101.703125 116.703125 101.507812 116.53125 101.300781 C 116.355469 101.097656 116.195312 100.878906 116.046875 100.65625 C 115.898438 100.429688 115.765625 100.195312 115.648438 99.953125 C 115.527344 99.710938 115.425781 99.460938 115.339844 99.203125 C 115.25 98.949219 115.179688 98.691406 115.125 98.425781 C 115.066406 98.160156 115.027344 97.894531 115.007812 97.625 C 114.984375 97.355469 114.980469 97.085938 114.988281 96.816406 C 115 96.546875 115.027344 96.277344 115.074219 96.011719 C 115.117188 95.746094 115.179688 95.484375 115.253906 95.226562 C 115.332031 94.964844 115.425781 94.714844 115.535156 94.464844 L 115.578125 94.363281 L 145.941406 30.890625 Z M 149.597656 31.023438 Z M 149.597656 31.023438 " fill-opacity="1" fill-rule="nonzero"/></g></svg>